<?xml version="1.0" encoding="UTF-8"?>
<svg version="1.1" xmlns="http://www.w3.org/2000/svg" width="3176" height="2301">
<path d="M0 0 C23.76 0 47.52 0 72 0 C72.33 86.13 72.66 172.26 73 261 C78.07911775 261 78.65075153 259.80934158 82.1875 256.3125 C117.91747598 222.22643841 168.61551764 200.23549983 218.1875 199.76171875 C219.03959549 199.7519249 219.89169098 199.74213104 220.76960754 199.73204041 C239.52136827 199.56089697 257.65504592 199.63693 276 204 C277.34747314 204.31348389 277.34747314 204.31348389 278.72216797 204.63330078 C318.48755412 214.19332068 352.27904384 236.5708695 374.10546875 271.35546875 C391.34947269 300.34007111 399.19209971 333.43113607 399.12025452 367.01502991 C399.12069107 368.53659932 399.12156752 370.05816866 399.12284368 371.5797376 C399.12507217 375.74379074 399.12108994 379.90781799 399.11606562 384.07186782 C399.11173762 388.56868415 399.11320921 393.06549907 399.1139679 397.56231689 C399.11449164 405.34770616 399.11136043 413.13308704 399.10573006 420.9184742 C399.09759484 432.17476668 399.09499776 443.43105511 399.09374207 454.68735021 C399.09155473 472.95099293 399.08490325 491.21463119 399.07543945 509.47827148 C399.06625712 527.21720355 399.0591803 544.9561344 399.05493164 562.69506836 C399.05453756 564.33586266 399.05453756 564.33586266 399.05413551 566.00980432 C399.05283045 571.49752275 399.05156675 576.98524119 399.05032361 582.47295964 C399.0399609 627.98197706 399.02152791 673.49098622 399 719 C375.24 719 351.48 719 327 719 C326.98541748 708.48237793 326.97083496 697.96475586 326.95581055 687.12841797 C326.90697237 653.41140397 326.843541 619.6944314 326.77101372 585.97746038 C326.75974661 580.73334622 326.74860798 575.48923179 326.73754883 570.24511719 C326.7342433 568.67921475 326.7342433 568.67921475 326.730871 567.08167793 C326.69557375 550.21568076 326.67066697 533.34968363 326.64965298 516.48366331 C326.62783043 499.15591754 326.59471919 481.82821937 326.55129844 464.50051415 C326.52489251 453.82288753 326.50711589 443.14532014 326.50065396 432.46766253 C326.49536603 425.12888147 326.47903613 417.79017471 326.45433434 410.45143358 C326.44043495 406.22801628 326.43110458 402.00473161 326.43499184 397.78129005 C326.46087305 362.25637576 324.54158295 325.13099814 300 297 C299.24203125 296.13117188 298.4840625 295.26234375 297.703125 294.3671875 C278.31283205 273.64618817 249.43691217 265.75188673 221.875 264.71484375 C175.0799356 263.69289511 126.62672727 279.75456052 92.40625 312.48046875 C91.07008891 313.8480974 89.74905852 315.23091261 88.453125 316.63671875 C87 318 87 318 85 318 C84.7525 318.57621094 84.505 319.15242188 84.25 319.74609375 C82.81305755 322.3370806 81.14041667 324.02044807 79 326.0625 C74.49395708 330.18558517 74.49395708 330.18558517 72.74519098 335.84763879 C72.74291266 337.019076 72.74063433 338.19051322 72.73828697 339.39744854 C72.73429091 340.05262231 72.73029485 340.70779609 72.72617769 341.38282362 C72.7151479 343.59356313 72.71841243 345.80405466 72.7215271 348.01481628 C72.71652738 349.60958129 72.71065254 351.20434375 72.70397437 352.7991026 C72.68812115 357.19334493 72.68474077 361.58752342 72.68332577 365.9817909 C72.67964097 370.71595238 72.66449016 375.45007845 72.65071106 380.18421936 C72.62840537 388.39041462 72.61341202 396.59659734 72.60334396 404.80281639 C72.58877663 416.66772017 72.56324533 428.53258027 72.53501268 440.39745847 C72.48950923 459.64606428 72.45290914 478.89467637 72.421875 498.14331055 C72.39170399 516.84481916 72.3573604 535.5463124 72.31738281 554.24780273 C72.31492126 555.39999486 72.31245972 556.55218698 72.30992357 557.73929401 C72.29754925 563.51933376 72.28509267 569.29937333 72.27259517 575.07941282 C72.16897419 623.05292374 72.08142275 671.02644525 72 719 C48.24 719 24.48 719 0 719 C0 481.73 0 244.46 0 0 Z " fill="#DBFE87" transform="translate(2028,444)"/>
<path d="M0 0 C0.59200195 0.41975098 1.18400391 0.83950195 1.79394531 1.27197266 C51.88726464 37.07960395 80.74357503 92.41392529 91.40332031 152.38134766 C95.05983426 174.55681809 97.19652932 196.82487735 97.56982422 219.29980469 C97.60684828 221.02781254 97.66177089 222.75552256 97.73388672 224.48242188 C97.83781128 227.02833412 97.88176056 229.56947782 97.9140625 232.1171875 C97.95737701 232.87675751 98.00069153 233.63632751 98.0453186 234.41891479 C98.02835607 239.29024576 96.59322964 242.07152699 93.35698032 245.70509243 C87.28075617 251.50442696 81.25602982 251.23947659 73.25071716 251.08229065 C71.7580065 251.08621983 70.26530193 251.09410838 68.77263027 251.10559314 C64.68759477 251.12564965 60.6046964 251.08982056 56.5199331 251.04459059 C52.10900993 251.00563311 47.69820203 251.01888312 43.28715515 251.02571106 C35.65044659 251.03042459 28.01443141 251.00224793 20.37789726 250.95157051 C9.33694958 250.87834858 -1.70366369 250.85497963 -12.74482786 250.84367859 C-30.65925813 250.82399308 -48.57331904 250.76413198 -66.48754883 250.67895508 C-83.88694412 250.59631221 -101.28623901 250.532622 -118.68579102 250.49438477 C-119.75874491 250.49202025 -120.83169881 250.48965574 -121.93716646 250.48721958 C-127.31999577 250.47547403 -132.70282579 250.46410071 -138.08565629 250.45291245 C-182.72402666 250.35964983 -227.36199424 250.2011648 -272 250 C-271.55228359 254.39393935 -271.0952462 258.78686423 -270.63671875 263.1796875 C-270.51196167 264.40518311 -270.38720459 265.63067871 -270.25866699 266.89331055 C-267.39988719 294.09884139 -261.2184384 321.38000449 -249 346 C-248.65855957 346.69915527 -248.31711914 347.39831055 -247.96533203 348.11865234 C-241.10201074 362.05196572 -232.68946351 373.67403603 -222 385 C-221.31550781 385.74894531 -220.63101563 386.49789063 -219.92578125 387.26953125 C-189.26904898 419.62626716 -139.81640072 430.60347756 -96.99758911 432.06851196 C-91.85283109 432.20698183 -86.70895282 432.2460416 -81.5625 432.25 C-80.76307983 432.25067474 -79.96365967 432.25134949 -79.14001465 432.25204468 C-40.18185682 432.20044127 3.30631978 427.25848707 38.33203125 408.77734375 C39.4008252 408.22409424 39.4008252 408.22409424 40.49121094 407.65966797 C41.79303144 406.97008978 43.0796933 406.25022431 44.34082031 405.48876953 C52.51622282 401.13790229 58.82350377 403 69 403 C69 423.79 69 444.58 69 466 C61.72523126 469.63738437 55.01024309 472.68134375 47.4375 475.375 C46.3539624 475.76075195 45.2704248 476.14650391 44.15405273 476.54394531 C24.18085118 483.53103192 3.90164683 488.70496356 -17 492 C-18.2276709 492.19754883 -19.4553418 492.39509766 -20.72021484 492.59863281 C-41.27494204 495.75533466 -61.72048069 496.39260721 -82.5 496.4375 C-84.30936035 496.4467601 -84.30936035 496.4467601 -86.15527344 496.45620728 C-155.47215113 496.6844406 -224.9132939 478.85350207 -276 430 C-276.92683594 429.12601563 -277.85367188 428.25203125 -278.80859375 427.3515625 C-326.86482764 380.86312064 -345.04817036 309.63896646 -346.15232849 244.75369263 C-346.89882757 189.70707747 -340.54937353 135.00563973 -316 85 C-315.44892578 83.87706543 -315.44892578 83.87706543 -314.88671875 82.73144531 C-304.3209402 61.47854977 -290.35157049 43.11479796 -274 26 C-273.32582031 25.27296875 -272.65164063 24.5459375 -271.95703125 23.796875 C-245.41864423 -4.0429681 -207.89808934 -20.6815675 -171 -29 C-170.28279785 -29.16725586 -169.5655957 -29.33451172 -168.82666016 -29.50683594 C-114.24171615 -41.93376321 -46.23732558 -32.81147325 0 0 Z M-226 70 C-229.19412708 73.53281919 -232.1309158 77.19985496 -235 81 C-235.60690674 81.79446533 -235.60690674 81.79446533 -236.22607422 82.60498047 C-255.51176213 108.00039804 -265.23457415 138.09963055 -270.375 169.3125 C-270.54298096 170.3319873 -270.71096191 171.35147461 -270.8840332 172.40185547 C-271.86302287 178.81738474 -272 184.32549947 -272 191 C-174.65 191 -77.3 191 23 191 C23 182.65745603 22.61164785 175.4314136 21.375 167.3125 C21.19678711 166.14058105 21.01857422 164.96866211 20.83496094 163.76123047 C14.22726739 122.2646914 -1.9212022 80.58895213 -36 54 C-55.06422446 40.49794348 -76.70973144 31.71308726 -100 29 C-101.20076172 28.83564453 -101.20076172 28.83564453 -102.42578125 28.66796875 C-147.76186297 23.37993433 -193.74019058 37.32601328 -226 70 Z " fill="#DBFE87" transform="translate(937,1578)"/>
<path d="M0 0 C0.59200195 0.41975098 1.18400391 0.83950195 1.79394531 1.27197266 C51.88726464 37.07960395 80.74357503 92.41392529 91.40332031 152.38134766 C95.05983426 174.55681809 97.19652932 196.82487735 97.56982422 219.29980469 C97.60684828 221.02781254 97.66177089 222.75552256 97.73388672 224.48242188 C97.83781128 227.02833412 97.88176056 229.56947782 97.9140625 232.1171875 C97.95737701 232.87675751 98.00069153 233.63632751 98.0453186 234.41891479 C98.02835607 239.29024576 96.59322964 242.07152699 93.35698032 245.70509243 C87.28075617 251.50442696 81.25602982 251.23947659 73.25071716 251.08229065 C71.7580065 251.08621983 70.26530193 251.09410838 68.77263027 251.10559314 C64.68759477 251.12564965 60.6046964 251.08982056 56.5199331 251.04459059 C52.10900993 251.00563311 47.69820203 251.01888312 43.28715515 251.02571106 C35.65044659 251.03042459 28.01443141 251.00224793 20.37789726 250.95157051 C9.33694958 250.87834858 -1.70366369 250.85497963 -12.74482786 250.84367859 C-30.65925813 250.82399308 -48.57331904 250.76413198 -66.48754883 250.67895508 C-83.88694412 250.59631221 -101.28623901 250.532622 -118.68579102 250.49438477 C-119.75874491 250.49202025 -120.83169881 250.48965574 -121.93716646 250.48721958 C-127.31999577 250.47547403 -132.70282579 250.46410071 -138.08565629 250.45291245 C-182.72402666 250.35964983 -227.36199424 250.2011648 -272 250 C-271.55228359 254.39393935 -271.0952462 258.78686423 -270.63671875 263.1796875 C-270.51196167 264.40518311 -270.38720459 265.63067871 -270.25866699 266.89331055 C-267.39988719 294.09884139 -261.2184384 321.38000449 -249 346 C-248.65855957 346.69915527 -248.31711914 347.39831055 -247.96533203 348.11865234 C-241.10201074 362.05196572 -232.68946351 373.67403603 -222 385 C-221.31550781 385.74894531 -220.63101563 386.49789063 -219.92578125 387.26953125 C-189.26904898 419.62626716 -139.81640072 430.60347756 -96.99758911 432.06851196 C-91.85283109 432.20698183 -86.70895282 432.2460416 -81.5625 432.25 C-80.76307983 432.25067474 -79.96365967 432.25134949 -79.14001465 432.25204468 C-40.18185682 432.20044127 3.30631978 427.25848707 38.33203125 408.77734375 C39.4008252 408.22409424 39.4008252 408.22409424 40.49121094 407.65966797 C41.79303144 406.97008978 43.0796933 406.25022431 44.34082031 405.48876953 C52.51622282 401.13790229 58.82350377 403 69 403 C69 423.79 69 444.58 69 466 C61.72523126 469.63738437 55.01024309 472.68134375 47.4375 475.375 C46.3539624 475.76075195 45.2704248 476.14650391 44.15405273 476.54394531 C24.18085118 483.53103192 3.90164683 488.70496356 -17 492 C-18.2276709 492.19754883 -19.4553418 492.39509766 -20.72021484 492.59863281 C-41.27494204 495.75533466 -61.72048069 496.39260721 -82.5 496.4375 C-84.30936035 496.4467601 -84.30936035 496.4467601 -86.15527344 496.45620728 C-155.47215113 496.6844406 -224.9132939 478.85350207 -276 430 C-276.92683594 429.12601563 -277.85367188 428.25203125 -278.80859375 427.3515625 C-326.86482764 380.86312064 -345.04817036 309.63896646 -346.15232849 244.75369263 C-346.89882757 189.70707747 -340.54937353 135.00563973 -316 85 C-315.44892578 83.87706543 -315.44892578 83.87706543 -314.88671875 82.73144531 C-304.3209402 61.47854977 -290.35157049 43.11479796 -274 26 C-273.32582031 25.27296875 -272.65164062 24.5459375 -271.95703125 23.796875 C-245.41864423 -4.0429681 -207.89808934 -20.6815675 -171 -29 C-170.28279785 -29.16725586 -169.5655957 -29.33451172 -168.82666016 -29.50683594 C-114.24171615 -41.93376321 -46.23732558 -32.81147325 0 0 Z M-226 70 C-229.19412708 73.53281919 -232.1309158 77.19985496 -235 81 C-235.60690674 81.79446533 -235.60690674 81.79446533 -236.22607422 82.60498047 C-255.51176213 108.00039804 -265.23457415 138.09963055 -270.375 169.3125 C-270.54298096 170.3319873 -270.71096191 171.35147461 -270.8840332 172.40185547 C-271.86302287 178.81738474 -272 184.32549947 -272 191 C-174.65 191 -77.3 191 23 191 C23 182.65745603 22.61164785 175.4314136 21.375 167.3125 C21.19678711 166.14058105 21.01857422 164.96866211 20.83496094 163.76123047 C14.22726739 122.2646914 -1.9212022 80.58895213 -36 54 C-55.06422446 40.49794348 -76.70973144 31.71308726 -100 29 C-101.20076172 28.83564453 -101.20076172 28.83564453 -102.42578125 28.66796875 C-147.76186297 23.37993433 -193.74019058 37.32601328 -226 70 Z " fill="#DBFE87" transform="translate(2869,677)"/>
<path d="M0 0 C1.24197144 -0.00794586 2.48394287 -0.01589172 3.7635498 -0.02407837 C55.88499824 -0.28011567 111.38176945 8.71130703 150.1875 46.375 C179.71701884 76.42775452 190.34891567 120.39943399 190.33226013 161.43968201 C190.33578698 162.48555278 190.33931382 163.53142356 190.34294754 164.60898739 C190.35353537 168.07844092 190.35729832 171.5478669 190.36108398 175.01733398 C190.36739775 177.52061577 190.37416445 180.02389646 190.38134766 182.5271759 C190.39597249 187.90604398 190.4077967 193.2849072 190.41729546 198.66378593 C190.43127459 206.48082236 190.45248156 214.29782756 190.47572399 222.11484135 C190.51358374 234.85381582 190.54854413 247.59279603 190.58032227 260.33178711 C190.58222276 261.09285545 190.58412325 261.85392378 190.58608133 262.6380548 C190.61278345 273.38391104 190.63669373 284.12977168 190.65946633 294.87563688 C190.66106363 295.62912544 190.66266094 296.382614 190.66430664 297.15893555 C190.66669684 298.28775492 190.66669684 298.28775492 190.66913532 299.43937873 C190.69614586 312.10400901 190.73064796 324.76860653 190.77096039 337.43320137 C190.79323895 344.51507744 190.81196386 351.59692533 190.82140923 358.6788311 C190.87069355 394.35868518 191.0147513 429.98051955 194.82763672 465.49829102 C195.06542454 467.7147602 195.28950104 469.93231085 195.51171875 472.15039062 C197.14184539 487.92816106 199.219243 503.62894399 201.1875 519.375 C178.4175 519.375 155.6475 519.375 132.1875 519.375 C129.66146393 506.11331061 127.37667967 493.23851226 126 479.875 C125.83471918 478.34627454 125.66870281 476.81762843 125.50195312 475.2890625 C124.57197444 466.66164154 123.78976167 458.03239302 123.1875 449.375 C121.8675 449.375 120.5475 449.375 119.1875 449.375 C117.56520814 451.34086849 117.56520814 451.34086849 116.1875 454 C111.65711616 461.52488063 106.08944573 467.90726624 100.1875 474.375 C99.71183594 474.89739258 99.23617187 475.41978516 98.74609375 475.95800781 C86.26949674 489.46852894 71.53690047 500.05227535 55.1875 508.375 C54.5879248 508.68630859 53.98834961 508.99761719 53.37060547 509.31835938 C4.34229312 534.5382974 -61.22721579 537.39847716 -113.46728516 521.13623047 C-133.51020951 514.63052173 -151.63821892 505.99995731 -167.8125 492.375 C-168.75480469 491.59640625 -169.69710937 490.8178125 -170.66796875 490.015625 C-188.86525381 474.3079544 -201.4721046 452.6915861 -208.125 429.75 C-208.36750488 428.91597656 -208.61000977 428.08195312 -208.85986328 427.22265625 C-212.36770334 414.4704801 -213.21993406 401.95670262 -213.1875 388.8125 C-213.18728851 388.02018982 -213.18707703 387.22787964 -213.18685913 386.41156006 C-213.15391642 374.03165954 -212.4095846 362.298778 -208.8125 350.375 C-208.43867188 349.116875 -208.06484375 347.85875 -207.6796875 346.5625 C-201.85377096 328.9690037 -192.44957874 314.75415245 -179.8125 301.375 C-178.80123047 300.26705078 -178.80123047 300.26705078 -177.76953125 299.13671875 C-155.52629687 275.64151996 -122.89782229 262.22590377 -92.8125 252.375 C-91.39759277 251.9116626 -91.39759277 251.9116626 -89.95410156 251.43896484 C-77.55569915 247.45732879 -64.9634204 244.40771042 -52.25610352 241.60546875 C-51.479715 241.43350605 -50.70332648 241.26154335 -49.90341103 241.08436966 C-33.11036477 237.37092347 -16.25632383 233.99583201 0.62439275 230.70790482 C4.66729837 229.91954953 8.70923733 229.12626376 12.75132751 228.33374023 C19.49058816 227.01312808 26.23052913 225.69603851 32.97094727 224.38134766 C40.75350113 222.86335665 48.53498758 221.33998521 56.31594378 219.81382751 C63.87067774 218.33212436 71.42603444 216.85362238 78.98171806 215.37677002 C82.17522277 214.7525317 85.36852242 214.12725949 88.56166267 213.50115967 C92.29370745 212.76957786 96.02629354 212.04082443 99.75932503 211.31429482 C101.12734877 211.04758744 102.495185 210.77991627 103.86281967 210.51122093 C105.72481204 210.14557026 107.58755332 209.78373937 109.45033264 209.42211914 C110.49221269 209.21865372 111.53409273 209.01518829 112.6075449 208.80555725 C115.1875 208.375 115.1875 208.375 118.1875 208.375 C117.88490859 196.04075134 117.55503519 183.70749232 117.1875 171.375 C117.15543457 170.2823584 117.12336914 169.1897168 117.09033203 168.06396484 C116.21813769 140.73028117 111.39991054 110.55532735 91.1875 90.375 C66.09229025 67.9194881 30.11599801 65.14972105 -2 65.125 C-2.79874542 65.12432526 -3.59749084 65.12365051 -4.42044067 65.12295532 C-50.94416157 65.18449844 -104.35705553 70.90196225 -146.61132812 91.75634766 C-156.39964292 96.48581383 -160.32869419 95.375 -172.8125 95.375 C-172.8125 74.255 -172.8125 53.135 -172.8125 31.375 C-136.13128757 18.27456699 -100.26246456 8.71027879 -61.8125 3.375 C-60.64444824 3.20838867 -59.47639648 3.04177734 -58.27294922 2.87011719 C-38.8980504 0.2321817 -19.52646798 0.06548715 0 0 Z M111.11985779 268.31495667 C110.04571625 268.52360855 108.97157471 268.73226044 107.86488342 268.94723511 C106.68027023 269.17935699 105.49565704 269.41147888 104.27514648 269.65063477 C102.40838257 270.01415794 102.40838257 270.01415794 100.50390625 270.38502502 C97.07387822 271.05308964 93.64432889 271.72358192 90.21488452 272.39463544 C87.33009091 272.95890152 84.44507488 273.5220257 81.56006104 274.08516449 C74.71491256 275.42133414 67.87015566 276.75949649 61.02563477 278.09887695 C54.05128495 279.46362834 47.07630821 280.82513753 40.10098785 282.18491894 C34.06442849 283.36182361 28.02829316 284.54088657 21.99246269 285.7215237 C18.41070733 286.42211192 14.82882052 287.12200442 11.24651909 287.81979561 C-3.30922165 290.65609442 -17.85169906 293.54950213 -32.36369503 296.60269725 C-33.76590617 296.89762669 -35.16833611 297.19151835 -36.57101166 297.48423111 C-54.96038052 301.32910579 -72.92583182 306.01654599 -89.8125 314.375 C-90.45509766 314.68550293 -91.09769531 314.99600586 -91.75976562 315.31591797 C-100.72058151 319.67888693 -108.38571013 324.63907431 -115.8125 331.375 C-116.44414062 331.91382813 -117.07578125 332.45265625 -117.7265625 333.0078125 C-130.43899659 344.55929371 -137.9931633 362.62033187 -138.93359375 379.55566406 C-139.83956703 402.01474179 -135.4655461 422.93574507 -119.80126953 439.95874023 C-99.68171043 460.78766391 -70.13865638 466.79742897 -42.19921875 467.5625 C-8.36989837 468.11291804 24.35234223 461.68852065 54.1875 445.375 C55.25484375 444.79878906 56.3221875 444.22257812 57.421875 443.62890625 C67.91489026 437.74357515 77.18761134 430.51185891 86.01171875 422.36328125 C87.75751374 420.76793179 89.52038102 419.27564268 91.375 417.8125 C97.25328528 412.71798609 101.93110501 406.5127177 106.75 400.4375 C107.42035278 399.59650757 107.42035278 399.59650757 108.10424805 398.73852539 C108.98341351 397.61858064 109.84997517 396.48860529 110.70245934 395.34821987 C111.69160949 394.03390519 112.70586307 392.73811033 113.74422646 391.46231937 C118.46532419 385.21402294 119.02493668 380.30478765 118.86865234 372.61303711 C118.8695285 371.47055511 118.87040466 370.32807312 118.87130737 369.15097046 C118.86715034 365.4007159 118.82058259 361.65228318 118.7734375 357.90234375 C118.76223879 355.2920479 118.75370179 352.68173939 118.74771118 350.07142639 C118.7291289 343.91966253 118.6799836 337.76854528 118.61961424 331.61706501 C118.55234101 324.60861705 118.51950819 317.60013673 118.48944163 310.5914458 C118.42687714 296.1856317 118.32147281 281.78032491 118.1875 267.375 C115.73163242 267.375 113.53358832 267.84400847 111.11985779 268.31495667 Z " fill="#DBFE87" transform="translate(2361.8125,1544.625)"/>
<path d="M0 0 C23.76 0 47.52 0 72 0 C72.01458252 10.51762207 72.02916504 21.03524414 72.04418945 31.87158203 C72.09302763 65.58859603 72.156459 99.3055686 72.22898628 133.02253962 C72.24025339 138.26665378 72.25139202 143.51076821 72.26245117 148.75488281 C72.26465486 149.79881777 72.26685854 150.84275272 72.269129 151.91832207 C72.30442625 168.78431924 72.32933303 185.65031637 72.35034702 202.51633669 C72.37216957 219.84408246 72.40528081 237.17178063 72.44870156 254.49948585 C72.47510749 265.17711247 72.49288411 275.85467986 72.49934604 286.53233747 C72.50463397 293.87111853 72.52096387 301.20982529 72.54566566 308.54856642 C72.55956505 312.77198372 72.56889542 316.99526839 72.56500816 321.21870995 C72.53912695 356.74362424 74.45841705 393.86900186 99 422 C99.75796875 422.86882812 100.5159375 423.73765625 101.296875 424.6328125 C119.85623871 444.46585803 147.51978881 452.8099698 174.00585938 454.15234375 C186.76554182 454.55792806 199.4057003 454.13976534 212 452 C213.10190674 451.8146167 213.10190674 451.8146167 214.22607422 451.62548828 C254.2579318 444.61800207 287.76850392 425.13440272 316.375 396.75 C316.87523682 396.2545166 317.37547363 395.7590332 317.89086914 395.24853516 C324.78791226 388.50779753 324.78791226 388.50779753 326.50780869 379.3564558 C326.51411244 378.69897434 326.52041619 378.04149288 326.52691096 377.36408773 C326.54319577 375.15726066 326.53100012 372.9515158 326.51898193 370.74467468 C326.52485641 369.14817929 326.53248305 367.55168955 326.541713 365.95521003 C326.56201158 361.56540034 326.5574094 357.17591311 326.54880548 352.78607786 C326.54386938 348.05329624 326.56193464 343.32059652 326.57722473 338.58784485 C326.60056206 330.3871188 326.60928416 322.18648124 326.60811615 313.9857235 C326.60644847 302.12878493 326.62676578 290.27196449 326.65247145 278.4150574 C326.69357777 259.17864754 326.71687179 239.94225889 326.72900391 220.70581055 C326.74082808 202.01796427 326.76101649 183.33015796 326.79248047 164.64233398 C326.79441657 163.49066731 326.79635267 162.33900063 326.79834744 161.15243497 C326.80811186 155.3749364 326.818041 149.59743812 326.82805204 143.81993997 C326.91090757 95.87996632 326.96159792 47.94003391 327 0 C350.76 0 374.52 0 399 0 C399 167.97 399 335.94 399 509 C375.24 509 351.48 509 327 509 C326.67 492.17 326.34 475.34 326 458 C320.92088225 458 320.34924847 459.19065842 316.8125 462.6875 C281.08252402 496.77356159 230.38448236 518.76450017 180.8125 519.23828125 C179.96040451 519.2480751 179.10830902 519.25786896 178.23039246 519.26795959 C159.47863173 519.43910303 141.34495408 519.36307 123 515 C121.65252686 514.68651611 121.65252686 514.68651611 120.27783203 514.36669922 C80.51244588 504.80667932 46.72095616 482.4291305 24.89453125 447.64453125 C7.65052731 418.65992889 -0.19209971 385.56886393 -0.12025452 351.98497009 C-0.12069107 350.46340068 -0.12156752 348.94183134 -0.12284368 347.4202624 C-0.12507217 343.25620926 -0.12108994 339.09218201 -0.11606562 334.92813218 C-0.11173762 330.43131585 -0.11320921 325.93450093 -0.1139679 321.43768311 C-0.11449164 313.65229384 -0.11136043 305.86691296 -0.10573006 298.0815258 C-0.09759484 286.82523332 -0.09499776 275.56894489 -0.09374207 264.31264979 C-0.09155473 246.04900707 -0.08490325 227.78536881 -0.07543945 209.52172852 C-0.06625712 191.78279645 -0.0591803 174.0438656 -0.05493164 156.30493164 C-0.05466892 155.21106877 -0.05440619 154.11720591 -0.05413551 152.99019568 C-0.05283045 147.50247725 -0.05156675 142.01475881 -0.05032361 136.52704036 C-0.0399609 91.01802294 -0.02152791 45.50901378 0 0 Z " fill="#DBFE87" transform="translate(1130,1555)"/>
<path d="M0 0 C0.85209549 -0.00979385 1.70419098 -0.01958771 2.58210754 -0.02967834 C21.33386827 -0.20082178 39.46754592 -0.12478875 57.8125 4.23828125 C58.71081543 4.44727051 59.60913086 4.65625977 60.53466797 4.87158203 C100.30005412 14.43160193 134.09154384 36.80915075 155.91796875 71.59375 C173.16197269 100.57835236 181.00459971 133.66941732 180.93275452 167.25331116 C180.93319107 168.77488057 180.93406752 170.29644991 180.93534368 171.81801885 C180.93757217 175.98207199 180.93358994 180.14609924 180.92856562 184.31014907 C180.92423762 188.8069654 180.92570921 193.30378032 180.9264679 197.80059814 C180.92699164 205.58598741 180.92386043 213.37136829 180.91823006 221.15675545 C180.91009484 232.41304793 180.90749776 243.66933636 180.90624207 254.92563146 C180.90405473 273.18927418 180.89740325 291.45291244 180.88793945 309.71655273 C180.87875712 327.4554848 180.8716803 345.19441565 180.86743164 362.93334961 C180.86703756 364.57414391 180.86703756 364.57414391 180.86663551 366.24808557 C180.86533045 371.735804 180.86406675 377.22352244 180.86282361 382.71124089 C180.8524609 428.22025831 180.83402791 473.72926747 180.8125 519.23828125 C157.0525 519.23828125 133.2925 519.23828125 108.8125 519.23828125 C108.79791748 508.72065918 108.78333496 498.20303711 108.76831055 487.36669922 C108.71947237 453.64968522 108.656041 419.93271265 108.58351372 386.21574163 C108.57224661 380.97162747 108.56110798 375.72751304 108.55004883 370.48339844 C108.5467433 368.917496 108.5467433 368.917496 108.543371 367.31995918 C108.50807375 350.45396201 108.48316697 333.58796488 108.46215298 316.72194456 C108.44033043 299.39419879 108.40721919 282.06650062 108.36379844 264.7387954 C108.33739251 254.06116878 108.31961589 243.38360139 108.31315396 232.70594378 C108.30786603 225.36716272 108.29153613 218.02845596 108.26683434 210.68971483 C108.25293495 206.46629753 108.24360458 202.24301286 108.24749184 198.0195713 C108.27337305 162.49465701 106.35408295 125.36927939 81.8125 97.23828125 C81.05453125 96.36945313 80.2965625 95.500625 79.515625 94.60546875 C60.12533205 73.88446942 31.24941217 65.99016798 3.6875 64.953125 C-43.1075644 63.93117636 -91.56077273 79.99284177 -125.78125 112.71875 C-127.11741109 114.08637865 -128.43844148 115.46919386 -129.734375 116.875 C-131.1875 118.23828125 -131.1875 118.23828125 -133.1875 118.23828125 C-133.435 118.81449219 -133.6825 119.39070313 -133.9375 119.984375 C-135.37444245 122.57536185 -137.04708333 124.25872932 -139.1875 126.30078125 C-143.69354292 130.42386642 -143.69354292 130.42386642 -145.44230902 136.08592004 C-145.44458734 137.25735725 -145.44686567 138.42879447 -145.44921303 139.63572979 C-145.45320909 140.29090356 -145.45720515 140.94607734 -145.46132231 141.62110487 C-145.4723521 143.83184438 -145.46908757 146.04233591 -145.4659729 148.25309753 C-145.47097262 149.84786254 -145.47684746 151.442625 -145.48352563 153.03738385 C-145.49937885 157.43162618 -145.50275923 161.82580467 -145.50417423 166.22007215 C-145.50785903 170.95423363 -145.52300984 175.6883597 -145.53678894 180.42250061 C-145.55909463 188.62869587 -145.57408798 196.83487859 -145.58415604 205.04109764 C-145.59872337 216.90600142 -145.62425467 228.77086152 -145.65248732 240.63573972 C-145.69799077 259.88434553 -145.73459086 279.13295762 -145.765625 298.3815918 C-145.79579601 317.08310041 -145.8301396 335.78459365 -145.87011719 354.48608398 C-145.87257874 355.63827611 -145.87504028 356.79046823 -145.87757643 357.97757526 C-145.88995075 363.75761501 -145.90240733 369.53765458 -145.91490483 375.31769407 C-146.01852581 423.29120499 -146.10607725 471.2647265 -146.1875 519.23828125 C-169.9475 519.23828125 -193.7075 519.23828125 -218.1875 519.23828125 C-218.1875 351.26828125 -218.1875 183.29828125 -218.1875 10.23828125 C-194.4275 10.23828125 -170.6675 10.23828125 -146.1875 10.23828125 C-145.8575 27.06828125 -145.5275 43.89828125 -145.1875 61.23828125 C-140.10838225 61.23828125 -139.53674847 60.04762283 -136 56.55078125 C-100.27002402 22.46471966 -49.57198236 0.47378108 0 0 Z " fill="#DBFE87" transform="translate(313.1875,1544.76171875)"/>
<path d="M0 0 C1.07373367 -0.00101212 1.07373367 -0.00101212 2.16915894 -0.00204468 C31.58693651 0.04150827 60.57684119 4.75456386 88.4375 14.25 C89.50564941 14.61303223 90.57379883 14.97606445 91.67431641 15.35009766 C127.33655486 27.68912177 158.90341519 46.84375802 188.4375 70.25 C189.32864502 70.95213623 189.32864502 70.95213623 190.23779297 71.66845703 C196.26509828 76.43296974 201.99413723 81.48272553 207.63671875 86.6953125 C209.7886581 88.65816931 211.96428808 90.56653362 214.171875 92.46484375 C218.98815371 96.66682146 223.49283119 101.15874857 228 105.6875 C228.81146484 106.49509766 229.62292969 107.30269531 230.45898438 108.13476562 C235.32748927 113.01112928 239.95794875 118.01629731 244.4375 123.25 C245.48283068 124.44146085 246.52967911 125.63159201 247.578125 126.8203125 C254.3361432 134.52919685 260.86393209 142.36424073 267.09570312 150.50488281 C268.38980864 152.18797346 269.70127251 153.85613862 271.015625 155.5234375 C287.07068829 176.1539747 301.44592719 198.58732621 314.4375 221.25 C314.94023438 222.11173828 315.44296875 222.97347656 315.9609375 223.86132812 C330.5660513 248.92156607 343.70710254 275.02508276 355.44821167 301.54800415 C356.01981161 302.83896304 356.59601732 304.12789343 357.17703247 305.41464233 C357.96563611 307.16998119 358.72964117 308.93631055 359.4921875 310.703125 C359.91999512 311.68442383 360.34780273 312.66572266 360.78857422 313.67675781 C361.4375 316.25 361.4375 316.25 360.89208984 318.37988281 C358.94433901 320.88404047 356.84917194 322.11790907 354.109375 323.71875 C352.46231567 324.68953491 352.46231567 324.68953491 350.78198242 325.67993164 C349.58417774 326.37057243 348.38600748 327.06057953 347.1875 327.75 C345.95066727 328.47017461 344.71409776 329.19080145 343.4777832 329.91186523 C339.80892184 332.04441162 336.12618365 334.15196179 332.4375 336.25 C331.46538574 336.80316895 330.49327148 337.35633789 329.49169922 337.92626953 C258.21126797 378.1779853 180.16195017 404.96319485 20.1171875 423.453125 C18.69654308 423.46015092 17.27589896 423.4672377 15.85525513 423.47438049 C11.34099874 423.49376797 6.82679383 423.49881496 2.3125 423.5 C1.15717773 423.50066278 1.15717773 423.50066278 -0.02148438 423.50133896 C-23.25064546 423.50832323 -46.33559967 423.24804474 -69.43103027 420.50323486 C-71.65674019 420.23880355 -73.88344943 419.98416151 -76.11035156 419.72998047 C-147.93574306 411.41640131 -216.87023721 391.31799406 -282.5625 361.25 C-283.88217773 360.65106934 -283.88217773 360.65106934 -285.22851562 360.04003906 C-310.93931841 348.3413194 -335.44902969 333.91810175 -359.5625 319.25 C-358.97755411 314.51058842 -357.62657531 310.72791746 -355.640625 306.39453125 C-355.34450821 305.74387695 -355.04839142 305.09322266 -354.74330139 304.42285156 C-353.77396008 302.29915987 -352.79380712 300.18068623 -351.8125 298.0625 C-351.13020873 296.57848118 -350.44816412 295.09434893 -349.76635742 293.61010742 C-347.71264906 289.15006481 -345.64065155 284.69869732 -343.5625 280.25 C-343.10922333 279.27836914 -343.10922333 279.27836914 -342.64678955 278.28710938 C-335.17653529 262.29039121 -327.30166971 246.59215333 -318.5625 231.25 C-317.91764648 230.11771973 -317.27279297 228.98543945 -316.60839844 227.81884766 C-307.50956184 211.89524362 -298.01712104 196.32999884 -287.5625 181.25 C-287.04880859 180.50363281 -286.53511719 179.75726562 -286.00585938 178.98828125 C-275.84859618 164.25438214 -265.08064155 149.94990556 -253.5625 136.25 C-252.90846191 135.46858643 -252.90846191 135.46858643 -252.24121094 134.67138672 C-241.45678415 121.81476118 -230.02596189 109.63968952 -218.1875 97.75 C-217.45063965 97.0084668 -216.7137793 96.26693359 -215.95458984 95.50292969 C-211.31932757 90.88125443 -206.53603528 86.50383702 -201.5625 82.25 C-200.54148237 81.36088868 -199.52063503 80.47158174 -198.5 79.58203125 C-178.31227725 62.26676373 -156.35675003 47.42747575 -133.05322266 34.62744141 C-130.71164051 33.332479 -128.39230023 32.00439535 -126.07421875 30.66796875 C-88.46177145 9.41886625 -42.85517026 0.03677699 0 0 Z M-46.5625 41.25 C-47.66899902 41.48122559 -48.77549805 41.71245117 -49.91552734 41.95068359 C-51.00945801 42.1977002 -52.10338867 42.4447168 -53.23046875 42.69921875 C-54.72549927 43.03505981 -54.72549927 43.03505981 -56.25073242 43.37768555 C-57.01361572 43.66554932 -57.77649902 43.95341309 -58.5625 44.25 C-59.86109482 47.09413815 -59.86109482 47.09413815 -58.80908203 49.24511719 C-58.40028809 50.00469727 -57.99149414 50.76427734 -57.5703125 51.546875 C-57.11688477 52.41127197 -56.66345703 53.27566895 -56.19628906 54.16625977 C-55.69838867 55.10139404 -55.20048828 56.03652832 -54.6875 57 C-48.77878606 68.46067177 -43.96584098 80.14027611 -39.5625 92.25 C-39.2536084 93.08756836 -38.9447168 93.92513672 -38.62646484 94.78808594 C-26.53411414 127.90860618 -19.9749522 163.25076712 -16.5625 198.25 C-16.40587891 199.80122559 -16.40587891 199.80122559 -16.24609375 201.38378906 C-12.85947751 236.35381686 -13.34887255 272.28870244 -16.5625 307.25 C-16.65724609 308.28432159 -16.65724609 308.28432159 -16.75390625 309.33953857 C-18.95841243 333.15482426 -22.52429756 356.68370032 -26.5625 380.25 C-26.897022 382.24980153 -27.23079018 384.24973009 -27.5625 386.25 C-21.76563791 387.08308693 -16.15669412 387.39740784 -10.3046875 387.3828125 C-9.00641525 387.38424759 -9.00641525 387.38424759 -7.68191528 387.38571167 C-5.85825528 387.38638858 -4.0345928 387.3845686 -2.2109375 387.38037109 C0.53391145 387.37505537 3.27859383 387.38031247 6.0234375 387.38671875 C15.87767616 387.39006393 25.61787473 387.15392441 35.4375 386.25 C35.24639648 385.18080322 35.05529297 384.11160645 34.85839844 383.01000977 C26.85093395 338.02353926 21.19708095 293.14165044 21.25 247.375 C21.25060425 246.39721588 21.2512085 245.41943176 21.25183105 244.41201782 C21.36246193 177.99773933 32.24706343 110.29964272 62.76171875 50.6640625 C64.58437602 47.58463094 64.58437602 47.58463094 64.4375 45.25 C28.18859069 35.87272591 -9.70205302 33.36888238 -46.5625 41.25 Z M-202.0625 133.625 C-205.44457166 137.04607413 -208.67588568 140.55429979 -211.80078125 144.2109375 C-213.75855739 146.4769223 -215.78478948 148.67143494 -217.8125 150.875 C-222.89358696 156.50725571 -227.52192043 162.45249936 -232.15966797 168.44873047 C-233.52131777 170.19712104 -234.89940058 171.93083304 -236.28515625 173.66015625 C-243.42958947 182.59487769 -250.0710468 191.8321834 -256.5625 201.25 C-256.96758789 201.83233398 -257.37267578 202.41466797 -257.79003906 203.01464844 C-279.06741181 233.68068439 -296.07159154 266.85359826 -312.5625 300.25 C-309.44859115 303.69896773 -306.24582986 305.72217741 -302.15625 307.90234375 C-301.5282399 308.23865311 -300.9002298 308.57496246 -300.25318909 308.92146301 C-298.19434547 310.01932504 -296.12922533 311.10455527 -294.0625 312.1875 C-293.34899384 312.56338257 -292.63548767 312.93926514 -291.90036011 313.32653809 C-221.55149257 350.335244 -142.96343923 375.30342749 -63.5625 382.25 C-59.42039366 362.4424741 -56.27951138 342.56055012 -53.83392334 322.4776001 C-53.65912833 321.04303896 -53.48224924 319.60872945 -53.30279541 318.17474365 C-50.62648519 296.71255522 -50.25482773 275.23012854 -50.19458389 253.62737656 C-50.18765654 251.54701216 -50.1760115 249.46672001 -50.16342163 247.38638306 C-50.00461839 216.95563301 -52.81007703 187.14592573 -58.5625 157.25 C-58.76681641 156.17685547 -58.97113281 155.10371094 -59.18164062 153.99804688 C-65.78972783 120.28631311 -78.09502623 88.30411289 -94.5625 58.25 C-129.87741924 58.25 -178.47012593 110.3185941 -202.0625 133.625 Z M99.4375 59.25 C71.23718656 110.85426209 57.45019274 170.28279397 57.234375 229.03515625 C57.22385353 230.95927841 57.22385353 230.95927841 57.21311951 232.92227173 C57.19367822 237.05235276 57.18868353 241.18237785 57.1875 245.3125 C57.18705814 246.0171854 57.18661629 246.7218708 57.18616104 247.44791031 C57.17879934 269.84146293 57.66431352 292.00650261 60.4375 314.25 C60.5270697 314.98252991 60.6166394 315.71505981 60.70892334 316.4697876 C64.00560382 349.30767177 64.00560382 349.30767177 71.4375 381.25 C81.59591884 380.68742409 91.48694879 379.26987098 101.5 377.5625 C102.28606628 377.42961578 103.07213257 377.29673157 103.88201904 377.15982056 C171.02416793 365.7702242 235.11966298 344.3523058 295.625 313.0625 C296.23705292 312.74639771 296.84910583 312.43029541 297.47970581 312.10461426 C303.34114351 309.06606534 308.98801413 305.97355491 314.4375 302.25 C311.32578896 293.92361499 307.48893276 285.99453304 303.5 278.0625 C303.171138 277.40659882 302.842276 276.75069763 302.50344849 276.07492065 C296.21880428 263.56375853 289.55005749 251.31218221 282.4375 239.25 C281.88239746 238.30608398 281.32729492 237.36216797 280.75537109 236.38964844 C264.71812228 209.25391007 246.65314497 183.43737212 226.4375 159.25 C225.95104004 158.66444336 225.46458008 158.07888672 224.96337891 157.47558594 C212.53252745 142.551838 199.29650427 127.7308659 184.53515625 115.07421875 C183.10478816 113.8303046 181.69649275 112.56065931 180.30859375 111.26953125 C172.47695122 103.99445215 163.99891389 97.62940758 155.4375 91.25 C154.83921387 90.79979492 154.24092773 90.34958984 153.62451172 89.88574219 C140.53287177 80.0641769 126.40478717 71.79972088 112 64.0625 C111.30865967 63.68794678 110.61731934 63.31339355 109.9050293 62.92749023 C106.44301616 61.1063069 103.33262694 59.75283912 99.4375 59.25 Z " fill="#DBFE87" transform="translate(666.5625,910.75)"/>
<path d="M0 0 C57.51261549 3.54370661 115.1838731 14.23972394 170 32 C171.21478027 32.39300293 172.42956055 32.78600586 173.68115234 33.19091797 C232.80233376 52.51884669 289.12556315 81.56981 335 124 C336.04360647 124.9525513 337.08791794 125.90433059 338.1328125 126.85546875 C339.21371316 127.84095777 340.29444459 128.82663244 341.375 129.8125 C342.12571777 130.49723389 342.12571777 130.49723389 342.89160156 131.19580078 C348.88044309 136.68455987 348.88044309 136.68455987 351 139 C351 139.66 351 140.32 351 141 C351.55429687 141.21011719 352.10859375 141.42023438 352.6796875 141.63671875 C355.81640276 143.47967098 357.85242412 146.03306446 360.125 148.8125 C360.60727051 149.39507568 361.08954102 149.97765137 361.58642578 150.57788086 C363.0673617 152.37754522 364.5350555 154.18730605 366 156 C366.81984375 157.00546875 367.6396875 158.0109375 368.484375 159.046875 C400.27651131 199.15068093 420.54100113 248.11933102 426 299 C426.14356934 300.30155029 426.14356934 300.30155029 426.29003906 301.62939453 C427.10896103 310.0313024 427.15259436 318.40159617 427.13037109 326.83447266 C427.12503966 329.23216159 427.13033279 331.62966068 427.13671875 334.02734375 C427.14808531 350.24795178 426.03708894 365.82162636 422.9375 381.75 C422.78482666 382.54759735 422.63215332 383.3451947 422.47485352 384.16696167 C419.54302542 399.39237485 415.73015639 414.22460603 411 429 C410.71688965 429.89348145 410.4337793 430.78696289 410.14208984 431.70751953 C391.46023357 489.87222428 357.96297959 543.29907451 319 590 C318.50870605 590.59039063 318.01741211 591.18078125 317.51123047 591.7890625 C311.49669565 599.0024609 305.31909323 606.05128697 299 613 C297.6249602 614.54163116 296.24996139 616.08329889 294.875 617.625 C285.67442353 627.83014548 276.25963377 637.82763419 266.5625 647.5625 C265.92497803 648.20461426 265.28745605 648.84672852 264.63061523 649.50830078 C260.88409872 653.24263271 257.0178379 656.77660245 253.01538086 660.23413086 C249.59297479 663.2328302 246.30304841 666.37113578 243 669.5 C238.3044343 673.94794798 233.55978695 678.30942701 228.6640625 682.53710938 C227.4019242 683.64666523 226.18829863 684.81170137 225 686 C220.52306094 685.4703117 217.74656237 682.50504373 214.5 679.625 C213.88560059 679.08915283 213.27120117 678.55330566 212.63818359 678.0012207 C207.65717008 673.63658036 202.7649796 669.17638594 197.9140625 664.66796875 C195.73184451 662.67003994 193.52934482 660.72603454 191.28881836 658.79589844 C187.18898399 655.21274713 183.307825 651.45285509 179.46484375 647.59765625 C178.78249161 646.91626083 178.10013947 646.23486542 177.39710999 645.53282166 C175.96655563 644.10294259 174.53724233 642.67182089 173.10913086 641.23950195 C170.94300926 639.06802289 168.77159826 636.90193675 166.59960938 634.73632812 C165.20020013 633.33625798 163.80110116 631.93587762 162.40234375 630.53515625 C161.76360825 629.89844498 161.12487274 629.2617337 160.46678162 628.60572815 C156.65541678 624.77480648 153.0282352 620.82994005 149.49913025 616.73724365 C147.58225661 614.5159046 145.60461295 612.35293869 143.625 610.1875 C139.78071755 605.92254692 136.10473095 601.5513915 132.49609375 597.0859375 C130.68801844 594.85060183 128.86887237 592.62811795 127.03515625 590.4140625 C113.9161646 574.52732551 102.12706831 557.87277188 90.6875 540.75 C90.1755307 539.98522339 89.6635614 539.22044678 89.13607788 538.43249512 C42.96964375 469.36103016 11.23313211 392.58638653 -21.203125 189.2421875 C-21.21019169 187.7768399 -21.21732435 186.31149261 -21.22451782 184.84614563 C-21.24403593 180.1890919 -21.24921011 175.5320908 -21.25 170.875 C-21.25029457 170.08029423 -21.25058914 169.28558846 -21.25089264 168.46680069 C-21.25234539 144.19912627 -21.00255126 120.11273622 -18 96 C-17.90054077 95.18599731 -17.80108154 94.37199463 -17.6986084 93.5333252 C-14.22811691 65.27590145 -9.30153047 37.35754021 -2.8515625 9.62890625 C-2.68224213 8.89631088 -2.51292175 8.16371552 -2.33847046 7.40892029 C-1.11998471 2.23996942 -1.11998471 2.23996942 0 0 Z M29 40 C26.4408134 47.14877965 25.36588318 54.53897872 24.125 62 C23.99404938 62.78112152 23.86309875 63.56224304 23.72817993 64.36703491 C21.63247507 76.97429619 19.99938924 89.60073465 18.6875 102.3125 C18.6065509 103.09407471 18.52560181 103.87564941 18.44219971 104.6809082 C16.92656846 119.49711259 15.85129399 134.26322156 15.796875 149.1640625 C15.78981537 150.46321594 15.78275574 151.76236938 15.77548218 153.10089111 C15.75595782 157.27559987 15.75078915 161.45024986 15.75 165.625 C15.74970543 166.33881081 15.74941086 167.05262161 15.74910736 167.78806305 C15.74758557 190.64085482 16.14450777 213.30012192 19 236 C19.10652893 236.84737732 19.21305786 237.69475464 19.32281494 238.56781006 C21.47396661 255.48707066 23.82710513 272.3721872 27.06640625 289.12109375 C27.22850082 289.9813063 27.3905954 290.84151886 27.55760193 291.72779846 C28.35752056 296.31283398 28.35752056 296.31283398 31 300 C33.95412074 299.93729758 33.95412074 299.93729758 37.4453125 299.3828125 C38.44210274 299.24524788 38.44210274 299.24524788 39.45903015 299.10490417 C41.68325835 298.79211934 43.90403685 298.46014713 46.125 298.125 C46.89685638 298.01118988 47.66871277 297.89737976 48.46395874 297.78012085 C133.0649817 285.24419168 219.0090559 259.38732512 316.0625 182.6875 C316.6817334 182.12514648 317.3009668 181.56279297 317.93896484 180.98339844 C321.89912648 177.29967842 324.98666967 173.49436225 328 169 C319.40563324 159.39272699 319.40563324 159.39272699 309.95703125 150.6484375 C307.75527096 148.79386097 305.66933433 146.83665751 303.5625 144.875 C284.13988471 127.43006742 261.79923796 113.5414225 239 101 C238.28457031 100.59974609 237.56914062 100.19949219 236.83203125 99.78710938 C179.5448485 67.76084626 95.75808979 39.01421146 29 40 Z M347.4609375 202.37890625 C346.42826706 203.43618816 345.39987612 204.49766095 344.375 205.5625 C339.75018046 210.27359838 335.03588118 214.72793854 330 219 C328.54787109 220.28583984 328.54787109 220.28583984 327.06640625 221.59765625 C266.7831354 274.74400391 187.75305595 305.54391867 38 335 C38.53593671 341.46546639 39.74686767 347.13732318 41.80078125 353.27734375 C42.21725166 354.55442955 42.21725166 354.55442955 42.64213562 355.85731506 C43.22728961 357.64605223 43.81660903 359.43343167 44.40991211 361.21948242 C45.30799989 363.92394856 46.19318091 366.63236872 47.07617188 369.34179688 C49.80191311 377.66155801 52.52661982 385.95463903 56 394 C60.08264614 393.27877747 63.54136445 391.29649912 67.16796875 389.38671875 C68.61984526 388.63178249 70.07175075 387.87690197 71.52368164 387.12207031 C72.28391632 386.72491821 73.044151 386.32776611 73.8274231 385.9185791 C77.81799397 383.83699083 81.81902543 381.77573916 85.8203125 379.71484375 C87.01500908 379.09949265 87.01500908 379.09949265 88.23384094 378.47171021 C162.27450643 340.38687212 245.04567559 313.70034016 328.9375 313.8125 C329.64323151 313.81243958 330.34896301 313.81237915 331.07608032 313.81231689 C348.25011194 313.83303898 365.36547201 314.83440528 382.328125 317.6328125 C384.92720993 317.98999669 387.38109971 318.02576147 390 318 C390.59350436 297.68135279 386.16157685 277.27349728 380 258 C379.71672852 257.11038574 379.43345703 256.22077148 379.14160156 255.30419922 C373.04193124 236.57046038 364.96238583 215.15602035 352 200 C349.66335365 199.77209432 349.66335365 199.77209432 347.4609375 202.37890625 Z M203 370 C202.360625 370.19764954 201.72125 370.39529907 201.0625 370.59893799 C175.31310751 378.59929374 150.42309544 388.59917744 126 400 C125.06575195 400.4336084 124.13150391 400.8672168 123.16894531 401.31396484 C110.43229127 407.24727971 97.89993683 413.52139611 85.5 420.125 C84.87706055 420.45477844 84.25412109 420.78455688 83.61230469 421.12432861 C81.85261576 422.05808283 80.09805185 423.00147613 78.34375 423.9453125 C77.33505859 424.48687988 76.32636719 425.02844727 75.28710938 425.58642578 C72.88338828 426.79512828 72.88338828 426.79512828 72 429 C72.96561719 431.62292469 72.96561719 431.62292469 74.47265625 434.625 C75.0351709 435.79313232 75.59768555 436.96126465 76.17724609 438.16479492 C76.80485542 439.4435938 77.43329567 440.72198515 78.0625 442 C78.37922668 442.64836823 78.69595337 443.29673645 79.02227783 443.9647522 C100.19903379 487.29594938 125.77812554 528.08869912 156.56298828 565.25878906 C158.64503132 567.7815772 160.69406795 570.3309177 162.75 572.875 C166.26667782 577.17101484 169.91834282 581.32063937 173.6640625 585.41796875 C175.56392092 587.51797948 177.42882458 589.63919361 179.28515625 591.77734375 C183.03195177 596.06849829 186.90140466 600.23367303 190.8125 604.375 C191.51246094 605.11669434 192.21242188 605.85838867 192.93359375 606.62255859 C200.08573091 614.17881789 207.25897137 621.62353038 215.171875 628.39453125 C217.9153931 630.80390291 220.45085082 633.38712209 223 636 C226.48654476 634.5158627 228.64191072 632.53785948 231.25 629.8125 C234.0587808 626.93498883 236.87666256 624.17010999 239.9375 621.5625 C246.92797508 615.54679236 253.29866842 608.93254256 259.2890625 601.9296875 C261.11799863 599.86691479 263.03580458 597.9340928 265 596 C268.88015615 592.16427312 272.45625609 588.1457699 276 584 C276.8823548 582.98137419 277.76520645 581.96317863 278.6484375 580.9453125 C328.97037841 522.80956267 391.29695887 436.03160446 389 355 C385.06353184 354.34777459 381.12566031 353.70442235 377.1875 353.0625 C375.53717773 352.78889648 375.53717773 352.78889648 373.85351562 352.50976562 C372.76103516 352.33251953 371.66855469 352.15527344 370.54296875 351.97265625 C369.55321045 351.81031494 368.56345215 351.64797363 367.54370117 351.48071289 C359.25730349 350.35664007 351.01440633 349.8335789 342.65625 349.76171875 C341.70151291 349.75187958 340.74677582 349.74204041 339.7631073 349.73190308 C292.58922611 349.34698149 248.06600683 356.06877756 203 370 Z " fill="#DBFE87" transform="translate(21,497)"/>
<path d="M0 0 C3.07097293 11.00542238 5.64702175 22.05810868 7.9375 33.25 C8.10986176 34.08982422 8.28222351 34.92964844 8.45980835 35.79492188 C16.14938252 73.51157146 21.06864852 112.32715327 21.203125 150.84765625 C21.21015343 152.22060678 21.21724018 153.59355701 21.22438049 154.96650696 C21.24377034 159.33184282 21.24881557 163.69712541 21.25 168.0625 C21.25066278 169.18090649 21.25066278 169.18090649 21.25133896 170.32190704 C21.25879097 194.32745599 20.77880002 218.13154945 18 242 C17.91278687 242.76177551 17.82557373 243.52355103 17.73571777 244.30841064 C8.50492707 324.44468909 -14.88685262 400.92283684 -51 473 C-51.57395508 474.15048828 -52.14791016 475.30097656 -52.73925781 476.48632812 C-72.01478266 514.94575323 -96.00712864 551.50001321 -123 585 C-123.74636719 585.92941406 -124.49273438 586.85882812 -125.26171875 587.81640625 C-133.95098205 598.53368433 -142.93953523 608.97990302 -152.33203125 619.0859375 C-153.693159 620.57261583 -155.0526153 622.06213174 -156.35522461 623.6003418 C-162.15977408 630.44230797 -168.55628633 636.70663718 -174.90600586 643.03637695 C-176.9326298 645.05764268 -178.95385547 647.08419574 -180.97460938 649.11132812 C-187.14688931 655.28679275 -193.31649545 661.37272692 -200 667 C-201.60768373 668.45445517 -203.21239715 669.91220895 -204.8125 671.375 C-208.44898211 674.64614774 -212.12755374 677.85633669 -215.875 681 C-216.75929688 681.7425 -217.64359375 682.485 -218.5546875 683.25 C-222.2707265 685.90940171 -222.2707265 685.90940171 -225 686 C-226.640625 684.8125 -226.640625 684.8125 -228.25 683 C-230.63734546 680.43600107 -233.02612252 678.02959984 -235.6875 675.75 C-240.66158085 671.45247038 -245.49657408 667.00677322 -250.32421875 662.54638672 C-251.44757398 661.50977075 -252.57259474 660.47495695 -253.69921875 659.44189453 C-261.63140708 652.16700832 -269.37693965 644.72366774 -277 637.125 C-278.18348022 635.9484082 -278.18348022 635.9484082 -279.39086914 634.74804688 C-283.54227417 630.58560909 -287.52543633 626.34006726 -291.36035156 621.88476562 C-293.94967972 618.90834911 -296.66842694 616.0568651 -299.375 613.1875 C-304.05007368 608.19109017 -308.5047169 603.08785388 -312.78125 597.7421875 C-314.73505108 595.32745448 -316.74209846 592.97096443 -318.77661133 590.62426758 C-346.80926603 558.15552013 -369.70441092 521.18918672 -389 483 C-389.40992188 482.19095215 -389.81984375 481.3819043 -390.2421875 480.54833984 C-406.97869266 447.2227568 -417.74302052 411.36966811 -424.3125 374.75 C-424.47202148 373.87069824 -424.63154297 372.99139648 -424.79589844 372.08544922 C-427.12217218 358.40767856 -427.2403626 344.58604599 -427.25 330.75 C-427.25067474 329.87182617 -427.25134949 328.99365234 -427.25204468 328.08886719 C-427.18529957 273.09589096 -411.12506379 220.43570197 -380 175 C-379.58395508 174.38576172 -379.16791016 173.77152344 -378.73925781 173.13867188 C-373.64558477 165.6496395 -368.15681123 158.65544909 -362.1887207 151.84277344 C-359.55616207 148.83731538 -357.06393103 145.82589729 -354.75 142.5625 C-352.83373251 139.9175431 -350.80788015 137.84717514 -348.31640625 135.73828125 C-344.15089686 132.15545011 -340.16766449 128.41096228 -336.1875 124.625 C-329.99686346 118.79550762 -323.73692127 113.19896405 -317 108 C-316.29391602 107.45375977 -315.58783203 106.90751953 -314.86035156 106.34472656 C-244.07724486 51.80026785 -157.40084972 22.01807458 0 0 Z M-43.16015625 41.1015625 C-43.93418793 41.2182428 -44.7082196 41.3349231 -45.50570679 41.45513916 C-48.02576724 41.83811982 -50.54423145 42.23041723 -53.0625 42.625 C-53.93069366 42.76004944 -54.79888733 42.89509888 -55.69338989 43.03424072 C-136.61143626 55.67110087 -218.72152446 80.25247445 -285 130 C-285.57556641 130.43135254 -286.15113281 130.86270508 -286.74414062 131.30712891 C-294.58907648 137.22975275 -301.94071231 143.53423695 -309.08984375 150.27734375 C-311.49205081 152.52477774 -313.92978008 154.68545863 -316.4375 156.8125 C-320.03260427 159.91146462 -323.00031206 163.32538227 -326 167 C-324.38320407 171.08094875 -321.45774626 173.80686971 -318.375 176.8125 C-317.8294043 177.3494751 -317.28380859 177.8864502 -316.72167969 178.43969727 C-312.61138865 182.45944522 -308.42687272 186.32929294 -304 190 C-303.46455566 190.44923828 -302.92911133 190.89847656 -302.37744141 191.36132812 C-233.12112337 249.34336183 -145.14656579 277.81007676 -57.0625 291.375 C-56.2338443 291.5026474 -55.4051886 291.6302948 -54.55142212 291.7618103 C-45.7201315 293.11063289 -36.91714013 294.3633248 -28 295 C-26.33211241 290.41989232 -25.3494993 285.88611133 -24.59765625 281.0859375 C-24.47533127 280.32735443 -24.35300629 279.56877136 -24.22697449 278.78720093 C-23.83185716 276.31750968 -23.44600151 273.8465203 -23.0625 271.375 C-22.92960571 270.5240979 -22.79671143 269.6731958 -22.65979004 268.79650879 C-10.82015962 192.65094478 -12.65398911 115.51876164 -28 40 C-33.15682809 39.88125863 -38.06011101 40.3088595 -43.16015625 41.1015625 Z M-350 197 C-372.31846692 223.66986613 -383.81828061 262.33270728 -388.8125 296.125 C-388.9364917 296.95298096 -389.0604834 297.78096191 -389.18823242 298.6340332 C-390.02319323 304.77410243 -390.12551887 310.80920399 -390 317 C-388.82195801 316.82609741 -388.82195801 316.82609741 -387.62011719 316.64868164 C-383.99729713 316.11611751 -380.37366539 315.58928033 -376.75 315.0625 C-374.89761719 314.78889648 -374.89761719 314.78889648 -373.0078125 314.50976562 C-371.17089844 314.24389648 -371.17089844 314.24389648 -369.296875 313.97265625 C-368.18666992 313.81031494 -367.07646484 313.64797363 -365.93261719 313.48071289 C-356.79199346 312.36338683 -347.71329948 311.838155 -338.5078125 311.796875 C-336.92353455 311.78635353 -336.92353455 311.78635353 -335.30725098 311.77561951 C-331.9131234 311.75820694 -328.51917062 311.7517659 -325.125 311.75 C-323.96216492 311.74932526 -322.79932983 311.74865051 -321.60125732 311.74795532 C-303.53199965 311.76459884 -285.89990197 312.3616049 -268 315 C-266.7944043 315.17160645 -265.58880859 315.34321289 -264.34667969 315.52001953 C-194.73051676 325.63433871 -128.2338099 351.03292984 -66.23193359 383.71728516 C-65.55886673 384.07082565 -64.88579987 384.42436615 -64.19233704 384.78862 C-62.37023421 385.74738369 -60.55133657 386.71223175 -58.73266602 387.67749023 C-56.2059358 389.1452094 -56.2059358 389.1452094 -54 389 C-44.38040237 360.69261033 -44.38040237 360.69261033 -36 332 C-38.7357643 329.2642357 -40.72593768 329.44110236 -44.55078125 328.95703125 C-45.9462468 328.77283841 -47.34167129 328.58833433 -48.73706055 328.40356445 C-49.48031586 328.30806305 -50.22357117 328.21256165 -50.98934937 328.11416626 C-141.02229108 316.4231892 -230.54146015 288.71281828 -313 229 C-314.38638672 227.89978516 -314.38638672 227.89978516 -315.80078125 226.77734375 C-321.24077114 222.39074056 -326.49178521 217.83185399 -331.65625 213.125 C-333.80692711 211.17505276 -335.98824971 209.26973871 -338.1875 207.375 C-341.50607491 204.4948547 -344.60200888 201.44666505 -347.65234375 198.28515625 C-348.81024746 196.88497893 -348.81024746 196.88497893 -350 197 Z M-389 354 C-391.30608177 411.09299422 -355.5440283 476.44865843 -324 522 C-323.51337891 522.7105957 -323.02675781 523.42119141 -322.52539062 524.15332031 C-311.61094374 540.08163198 -300.0877906 555.42751097 -287.49609375 570.0703125 C-285.19004939 572.77693733 -282.96551747 575.5317574 -280.75 578.3125 C-275.13286937 585.21584301 -268.95814038 591.5943512 -262.83837891 598.04833984 C-260.64643638 600.37535028 -258.48721169 602.73057065 -256.33227539 605.09179688 C-245.93040835 616.48174544 -235.1754017 627.48796742 -223 637 C-222.5153125 636.50371094 -222.030625 636.00742188 -221.53125 635.49609375 C-220.8609375 634.81675781 -220.190625 634.13742187 -219.5 633.4375 C-218.8503125 632.77621094 -218.200625 632.11492187 -217.53125 631.43359375 C-215.51306769 629.49327341 -213.46911837 627.66615138 -211.34765625 625.84375 C-206.31933209 621.47458043 -201.63531825 616.78155932 -196.9375 612.0625 C-196.07833984 611.20720703 -195.21917969 610.35191406 -194.33398438 609.47070312 C-189.90758105 605.03753676 -185.62610341 600.54169719 -181.54418945 595.78930664 C-179.30305013 593.19241967 -176.963023 590.69753971 -174.625 588.1875 C-170.40850096 583.61836664 -166.39241956 578.93377247 -162.49609375 574.0859375 C-160.61321802 571.75812556 -158.71149369 569.4554198 -156.78515625 567.1640625 C-148.93548076 557.80013586 -141.59635586 548.18730375 -134.55712891 538.20117188 C-133.05490476 536.07761388 -131.53618356 533.96700411 -130.01171875 531.859375 C-107.88978798 501.13975804 -89.47921256 468.03252957 -73.125 433.9375 C-72.70186523 433.05682861 -72.27873047 432.17615723 -71.84277344 431.26879883 C-71.46411133 430.46724365 -71.08544922 429.66568848 -70.6953125 428.83984375 C-70.2005542 427.79364868 -70.2005542 427.79364868 -69.69580078 426.72631836 C-68.87538938 425.00104562 -68.87538938 425.00104562 -69 423 C-139.69027288 386.17361247 -212.74405214 355.35300636 -293 348 C-293.69722168 347.93087402 -294.39444336 347.86174805 -295.11279297 347.79052734 C-321.4770503 345.24218418 -364.46771459 341.7338573 -389 354 Z " fill="#DBFE87" transform="translate(1314,497)"/>
<path d="M0 0 C2.77667768 10.75883949 5.27169768 21.53929345 7.4375 32.4375 C7.58651764 33.18566986 7.73553528 33.93383972 7.8890686 34.7046814 C15.52024832 73.2323385 21.07523706 112.86505733 21.203125 152.1796875 C21.20595238 152.8749567 21.20877975 153.57022591 21.21169281 154.28656387 C21.22654734 157.9815735 21.23585756 161.67654562 21.24023438 165.37158203 C21.24457158 168.34176233 21.25829642 171.31164434 21.28125 174.28173828 C21.84771985 249.21597095 8.50390629 333.83099973 -36 396 C-37.31826679 398.01707617 -38.63098172 400.03779419 -39.9375 402.0625 C-46.50746074 411.90419522 -53.9482974 421.07014089 -61.95703125 429.7734375 C-63.82959308 431.81427926 -65.63829534 433.89463697 -67.4375 436 C-74.11356831 443.62759989 -81.31610358 450.48250174 -89.2421875 456.796875 C-91.0199198 458.21704641 -92.7771969 459.66340172 -94.5078125 461.140625 C-121.40571097 484.00795153 -154.35573142 499.93476129 -188 510 C-188.96921387 510.29890137 -189.93842773 510.59780273 -190.93701172 510.90576172 C-208.79501836 516.35865345 -226.46332765 519.1650988 -245 521 C-246.49466797 521.1546875 -246.49466797 521.1546875 -248.01953125 521.3125 C-258.77964633 522.29323966 -269.57909534 522.24368892 -280.375 522.25 C-281.9355159 522.25101212 -281.9355159 522.25101212 -283.52755737 522.25204468 C-301.19715127 522.23391854 -318.47930267 521.45337633 -336 519 C-337.84271484 518.74259033 -337.84271484 518.74259033 -339.72265625 518.47998047 C-390.52391457 511.13165988 -440.16419653 495.87925221 -487 475 C-487.97485352 474.56896973 -488.94970703 474.13793945 -489.95410156 473.69384766 C-522.51538727 459.24810219 -553.58032054 442.51435096 -584 424 C-574.39634493 393.87944545 -559.30977331 364.67569347 -543.41210938 337.44091797 C-541.71846971 334.51335756 -540.08674935 331.55467576 -538.45825195 328.59057617 C-533.781292 320.1041654 -528.60848352 311.98173483 -523.26074219 303.90429688 C-522.14989901 302.22641601 -521.04698094 300.54329406 -519.9453125 298.859375 C-506.75008929 278.82015635 -492.50962619 259.31455859 -477 241 C-476.54173828 240.45827148 -476.08347656 239.91654297 -475.61132812 239.35839844 C-469.92107515 232.64330796 -464.17247723 225.98731621 -458.24462891 219.47998047 C-456.89757937 217.99169145 -455.55918422 216.49539881 -454.23852539 214.98364258 C-447.02218187 206.77219837 -439.27173684 199.08564961 -431.54443359 191.35913086 C-429.13219497 188.94470151 -426.728087 186.52236901 -424.32421875 184.09960938 C-417.22977965 176.97979684 -410.21095099 169.95859548 -402.26342773 163.78369141 C-399.71466066 161.77513869 -397.3297004 159.62925303 -394.9375 157.4375 C-390.12104224 153.06436675 -385.12531702 149.00415392 -380 145 C-378.66658362 143.94802192 -377.33325773 142.89592914 -376 141.84375 C-307.27841274 87.79930422 -228.541024 47.18412266 0 0 Z M-44.1328125 40.03125 C-45.29824081 40.19793182 -45.29824081 40.19793182 -46.48721313 40.36798096 C-49.03445935 40.73694264 -51.57988964 41.11659094 -54.125 41.5 C-55.44788025 41.69873718 -55.44788025 41.69873718 -56.79748535 41.90148926 C-133.97010141 53.61113181 -209.5425228 79.56488871 -277 119 C-255.85402033 167.7532309 -227.39973351 215.36798796 -193 256 C-192.13096145 257.04251137 -191.26250152 258.08550528 -190.39453125 259.12890625 C-184.62267946 266.04115595 -178.66918893 272.7626688 -172.53027344 279.35205078 C-170.83806758 281.17438479 -169.15725992 283.00689278 -167.4765625 284.83984375 C-159.64603714 293.40527224 -159.64603714 293.40527224 -151.0859375 301.22265625 C-148.87725015 303.10459023 -146.78404164 305.09024521 -144.68310547 307.09082031 C-137.28455614 314.09481006 -129.40546107 320.29981719 -121.21923828 326.35449219 C-119.01952991 327.98551908 -116.83580114 329.63637134 -114.65234375 331.2890625 C-97.7643298 343.9301408 -78.77367616 355.43507086 -59 363 C-32.80491759 315.97749164 -19.83484971 263.47307121 -16 210 C-15.86863647 208.18109253 -15.86863647 208.18109253 -15.73461914 206.32543945 C-14.96908673 195.028657 -14.79885509 183.75772237 -14.8125 172.4375 C-14.81310425 171.50180176 -14.8137085 170.56610352 -14.81433105 169.60205078 C-14.88448851 129.23927029 -19.49658495 89.72342351 -26.51171875 50.03125 C-26.64698975 49.2610704 -26.78226074 48.49089081 -26.92163086 47.69737244 C-27.45795927 44.71007834 -28.03867321 41.88398038 -29 39 C-34.13574809 38.88935552 -39.04731198 39.28526393 -44.1328125 40.03125 Z M-317.5625 144.75 C-318.41859863 145.33692627 -319.27469727 145.92385254 -320.15673828 146.52856445 C-328.27619414 152.13127474 -336.1736893 157.99711805 -344 164 C-344.64356445 164.49258301 -345.28712891 164.98516602 -345.95019531 165.49267578 C-349.64085348 168.31894786 -353.32391081 171.15480768 -357 174 C-355.52424056 177.54034443 -353.59931501 179.45743776 -350.69921875 181.93359375 C-344.73329449 187.17267225 -339.12415411 192.72454319 -333.52172852 198.34790039 C-331.80792767 200.0670867 -330.08880918 201.78082583 -328.36914062 203.49414062 C-323.22801335 208.63215943 -318.16312286 213.77819017 -313.44311523 219.31176758 C-311.24507308 221.88315339 -308.93064933 224.3372158 -306.625 226.8125 C-302.40725913 231.38297905 -298.3904736 236.0693887 -294.4921875 240.91796875 C-292.62130916 243.23164118 -290.73268121 245.52186579 -288.8203125 247.80078125 C-237.92281328 308.58080015 -197.34386002 381.94847623 -185.29150391 461.00756836 C-185.0776001 462.36507202 -185.0776001 462.36507202 -184.859375 463.75 C-184.74045898 464.54921875 -184.62154297 465.3484375 -184.49902344 466.171875 C-184.3343457 466.77515625 -184.16966797 467.3784375 -184 468 C-181.85546705 469.36591313 -181.85546705 469.36591313 -178.82421875 467.953125 C-177.44048962 467.3972753 -176.06193263 466.82845497 -174.6875 466.25 C-173.94129395 465.93780518 -173.19508789 465.62561035 -172.42626953 465.30395508 C-148.78646906 455.16532328 -127.16293966 441.51856389 -108.25390625 424.06640625 C-106.2536994 422.23259442 -104.20656762 420.48962633 -102.125 418.75 C-96.27462999 413.66220368 -91.13603054 407.79472423 -86 402 C-85.51321777 401.46133301 -85.02643555 400.92266602 -84.52490234 400.36767578 C-81.59977069 397.17595501 -81.59977069 397.17595501 -81 393 C-81.98673706 392.5035498 -81.98673706 392.5035498 -82.9934082 391.99707031 C-127.36273137 369.57125013 -169.68390643 339.13460953 -202.171875 301.10546875 C-204.3102087 298.64272972 -206.53084599 296.26512657 -208.75 293.875 C-213.49754517 288.66847765 -217.85026442 283.22607761 -222.15625 277.65234375 C-224.03828383 275.21856726 -225.95297522 272.81836931 -227.90625 270.44140625 C-235.2581435 261.47763927 -241.88405375 252.14709204 -248.3203125 242.5078125 C-250.0025977 239.99612157 -251.70255039 237.49720355 -253.40625 235 C-274.12755308 204.48322506 -291.61443226 172.01164123 -308 139 C-311.07530207 139 -315.10937941 143.06640701 -317.5625 144.75 Z M-386 199 C-395.40135539 207.55764401 -404.50447644 216.39461578 -413.5 225.375 C-414.01755859 225.89006104 -414.53511719 226.40512207 -415.06835938 226.93579102 C-420.93326463 232.77746708 -426.62359943 238.69993307 -432 245 C-433.45445517 246.60768373 -434.91220895 248.21239715 -436.375 249.8125 C-440.21806298 254.07610017 -443.89322734 258.44552273 -447.5 262.91015625 C-449.32003572 265.15960665 -451.15218882 267.39473792 -453 269.62109375 C-460.49787708 278.68983492 -467.53074265 288.01278469 -474.31884766 297.62304688 C-476.05145855 300.07275638 -477.79684429 302.51303411 -479.54296875 304.953125 C-486.65623733 314.94349649 -493.34825154 325.08858774 -499.59619141 335.64111328 C-501.06151791 338.10337149 -502.55071314 340.55007376 -504.04296875 342.99609375 C-515.0345449 361.14030128 -524.80271663 379.98252092 -533.9375 399.125 C-534.26145752 399.79893799 -534.58541504 400.47287598 -534.91918945 401.16723633 C-536.23150785 403.98190728 -537 405.85179153 -537 409 C-508.37895861 424.68391379 -479.42852782 439.11603785 -449 451 C-447.20127441 451.70334473 -447.20127441 451.70334473 -445.36621094 452.42089844 C-372.8010696 480.51250672 -296.2484101 493.6513589 -219 480 C-219.52237345 471.97050031 -220.51397589 464.1947146 -222.125 456.3125 C-222.34454346 455.23726074 -222.56408691 454.16202148 -222.7902832 453.05419922 C-237.43630282 383.43621183 -274.44371896 320.88420448 -320 267 C-320.52335938 266.37754395 -321.04671875 265.75508789 -321.5859375 265.11376953 C-327.90460798 257.60633902 -334.40113105 250.29315674 -341.09765625 243.12109375 C-342.91802733 241.17142304 -344.71271371 239.20698052 -346.49609375 237.22265625 C-352.53055642 230.51037562 -358.81537121 224.07880095 -365.1875 217.6875 C-366.45303711 216.41507446 -366.45303711 216.41507446 -367.74414062 215.11694336 C-376.35746048 206.45047918 -376.35746048 206.45047918 -386 199 Z " fill="#DBFE87" transform="translate(629,0)"/>
<path d="M0 0 C10.07536932 -0.28860771 19.93330932 0.57771377 29.9375 1.625 C30.78325592 1.71269653 31.62901184 1.80039307 32.50039673 1.89074707 C63.41000303 5.1340203 93.81625784 10.61907465 124 18 C124.68584167 18.16759827 125.37168335 18.33519653 126.07830811 18.50787354 C173.30400925 30.124823 219.27210174 47.49537699 262.51318359 69.72558594 C265.01102188 71.00564836 267.51463007 72.27405021 270.01879883 73.54167175 C283.07201754 80.15780062 296.00213952 86.78748488 308.23583984 94.85253906 C310.05241351 96.03409127 311.88963955 97.17403438 313.73828125 98.3046875 C336.99957803 112.53661819 359.2518032 128.44407302 380.37890625 145.67871094 C381.86250303 146.88793169 383.35279521 148.08892582 384.84375 149.2890625 C403.98125152 164.76792402 421.71017024 181.6302318 439.125 199 C439.71212769 199.58444885 440.29925537 200.16889771 440.9041748 200.77105713 C447.16074486 207.00594102 453.26897112 213.27244306 459 220 C460.61967817 221.77570221 462.24411718 223.54708307 463.875 225.3125 C467.91279322 229.74496474 471.77307434 234.27742177 475.53515625 238.9453125 C477.34085175 241.1831158 479.15979312 243.40481899 480.99609375 245.6171875 C488.53138904 254.73017091 495.58475815 264.10857321 502.41357422 273.76074219 C503.96683075 275.95318123 505.53090595 278.13750266 507.09765625 280.3203125 C527.49604814 308.83155229 545.5672556 339.16845043 560.88378906 370.70556641 C561.69924151 372.38177422 562.51958394 374.05560563 563.34277344 375.72802734 C569.12738148 387.48465392 574.70414723 399.30704355 579.8125 411.375 C580.25126465 412.39722656 580.6900293 413.41945313 581.14208984 414.47265625 C581.73111084 415.88998047 581.73111084 415.88998047 582.33203125 417.3359375 C582.67983643 418.16657715 583.0276416 418.9972168 583.38598633 419.85302734 C584 422 584 422 583 425 C580.72875977 426.5871582 580.72875977 426.5871582 577.69140625 428.30078125 C576.56524902 428.94104248 575.4390918 429.58130371 574.27880859 430.2409668 C573.04030737 430.93195898 571.80153041 431.62245716 570.5625 432.3125 C569.28702259 433.03056278 568.01179785 433.74907454 566.73681641 434.46801758 C562.83399457 436.66250606 558.91913165 438.83479955 555 441 C553.85998535 441.6300293 552.7199707 442.26005859 551.54541016 442.90917969 C544.07203431 447.0195921 536.55393932 451.03973879 529 455 C527.9888916 455.53157715 526.9777832 456.0631543 525.93603516 456.61083984 C466.77661216 487.50594387 402.21840871 509.87861749 336 519 C334.82630859 519.16371094 333.65261719 519.32742188 332.44335938 519.49609375 C299.45268058 523.88517801 264.82993409 524.03529949 231.86132812 519.40136719 C229.25928648 519.0363709 226.65658671 518.71813766 224.046875 518.4140625 C202.07044224 515.6443151 180.34625667 508.59629344 160 500 C159.11828125 499.63181152 158.2365625 499.26362305 157.328125 498.88427734 C133.54564485 488.84892009 111.82880889 475.50421818 92 459 C91.2275293 458.36288086 91.2275293 458.36288086 90.43945312 457.71289062 C78.43480015 447.78138658 66.98866092 437.22155886 57.33203125 424.94921875 C55.5725998 422.72414213 53.78633569 420.55375113 51.94921875 418.39453125 C44.35947493 409.40474855 38.08503465 400.07832904 32.15332031 389.92871094 C30.69557882 387.49091293 29.10144976 385.15775107 27.5 382.8125 C0.14746126 339.92319701 -12.20916058 285.53325271 -18.25 235.6875 C-18.37462616 234.66174362 -18.37462616 234.66174362 -18.50177002 233.61526489 C-26.41981353 167.65113693 -30.52839912 61.05679823 0 0 Z M29 39 C19.10133995 81.96209434 14.76343954 126.32961311 14.8125 170.375 C14.81310425 171.38401367 14.8137085 172.39302734 14.81433105 173.43261719 C14.84067165 189.69954104 15.23746729 205.81391498 17 222 C17.12890625 223.18835449 17.2578125 224.37670898 17.390625 225.60107422 C22.708229 272.72710873 34.45706361 319.51598346 58 361 C63.58342011 360.46908842 67.71345673 358.37021841 72.5625 355.75 C73.3860498 355.30889893 74.20959961 354.86779785 75.05810547 354.41333008 C91.35544174 345.55914955 106.5193196 335.57480395 121 324 C121.9178125 323.28328125 122.835625 322.5665625 123.78125 321.828125 C135.5799928 312.55768423 146.66009464 302.66092841 157.20727539 291.99853516 C158.95591224 290.2313929 160.7126699 288.47263385 162.47070312 286.71484375 C168.18931384 280.97847431 173.77886652 275.19914004 179 269 C179.87671017 267.99010862 180.75426859 266.98095279 181.6328125 265.97265625 C204.16628805 239.66005549 223.5950628 210.9126885 241 181 C241.53173828 180.08750488 242.06347656 179.17500977 242.61132812 178.23486328 C250.29807506 164.96456139 257.4272019 151.44860734 264.3125 137.75 C264.69111176 137.00063171 265.06972351 136.25126343 265.45980835 135.47918701 C266.53889897 133.33854478 267.60893339 131.1936404 268.67578125 129.046875 C268.99801666 128.40833588 269.32025208 127.76979675 269.6522522 127.11190796 C271.30103846 123.76238084 272.47445354 120.70385124 273 117 C204.41262858 79.31036332 131.96120934 53.24265627 54.375 41.5625 C53.50393616 41.43067322 52.63287231 41.29884644 51.7354126 41.1630249 C49.24909995 40.79012221 46.7616869 40.42613764 44.2734375 40.06640625 C43.53941711 39.95741501 42.80539673 39.84842377 42.0491333 39.73612976 C37.63978692 39.11556431 33.4371322 38.90085635 29 39 Z M305 137 C304.39478516 138.22783203 304.39478516 138.22783203 303.77734375 139.48046875 C301.54019079 143.99806618 299.27334635 148.50052354 297 153 C296.1953833 154.59255615 296.1953833 154.59255615 295.37451172 156.21728516 C287.27302282 172.19691363 278.84399852 187.88329861 269.63476562 203.26123047 C268.06856108 205.88513767 266.52355606 208.52032892 264.984375 211.16015625 C245.13187681 245.02482083 221.18845472 276.67943877 194.46679688 305.41552734 C192.87016383 307.14025246 191.2862561 308.87615802 189.703125 310.61328125 C184.60107846 316.191509 179.56343014 321.65411021 173.74609375 326.50390625 C171.95056867 328.04235391 170.32780988 329.67293727 168.6875 331.375 C164.61244149 335.50487992 160.13143829 339.07163303 155.60595703 342.69287109 C153.94205845 344.04716009 152.31183106 345.43512307 150.68359375 346.83203125 C129.41931616 364.88349088 104.98737651 379.7282099 80 392 C81.60141599 396.31872428 83.50802966 398.94800688 86.6875 402.3125 C89.62031676 405.44048997 92.51033217 408.57478633 95.25 411.875 C116.80813811 436.49138561 150.99737507 461.29232554 183 469 C183.17221069 467.90220215 183.17221069 467.90220215 183.34790039 466.78222656 C189.32030467 429.23806525 199.40649783 393.74302163 215 359 C215.41362793 358.07493652 215.82725586 357.14987305 216.25341797 356.19677734 C236.33355169 311.69026572 264.86274912 270.61433025 296.59521484 233.64306641 C298.01599182 231.98129563 299.42502753 230.31016022 300.83203125 228.63671875 C317.39987155 208.9946361 335.78665116 191.09411551 354 173 C349.95839438 168.89256454 345.78993608 165.28157041 341.25 161.75 C340.49082275 161.15880371 339.73164551 160.56760742 338.94946289 159.95849609 C331.95273484 154.59070572 324.73106054 149.57675941 317.4375 144.625 C316.594151 144.05162903 316.594151 144.05162903 315.73376465 143.4666748 C310.68976594 139.29131134 310.68976594 139.29131134 305 137 Z M382 196 C376.57038852 201.40412361 371.14480655 206.8122689 365.72192383 212.22314453 C363.87908581 214.06097352 362.03534875 215.89790149 360.19067383 217.73388672 C357.52965592 220.38268823 354.87195597 223.03478125 352.21484375 225.6875 C351.39789536 226.49928711 350.58094696 227.31107422 349.73924255 228.14746094 C344.95039626 232.93584367 340.40621259 237.85906735 336 243 C334.54554483 244.60768373 333.08779105 246.21239715 331.625 247.8125 C327.78193702 252.07610017 324.10677266 256.44552273 320.5 260.91015625 C318.67996428 263.15960665 316.84781118 265.39473792 315 267.62109375 C297.10271447 289.26368839 280.9649724 312.63194464 267 337 C266.44965088 337.94262695 266.44965088 337.94262695 265.88818359 338.90429688 C253.09416966 360.85539291 242.12932725 383.92241789 234 408 C233.47865479 409.53140625 233.47865479 409.53140625 232.94677734 411.09375 C225.62553869 432.89222382 218.58078732 456.85014424 219 480 C321.44099692 498.25602202 423.22863078 468.23829785 537 409 C536.40593338 405.45755915 535.46901246 402.52427541 533.91796875 399.2890625 C533.48709961 398.38623535 533.05623047 397.4834082 532.61230469 396.55322266 C532.14211914 395.58690918 531.67193359 394.6205957 531.1875 393.625 C530.69540039 392.60841309 530.20330078 391.59182617 529.69628906 390.54443359 C511.36117729 352.9058471 489.49194931 317.23261809 464 284 C463.51241211 283.36223633 463.02482422 282.72447266 462.52246094 282.06738281 C456.37863654 274.06078093 449.97285897 266.2958273 443.40039062 258.63867188 C441.99203398 256.99067854 440.59643142 255.33260323 439.203125 253.671875 C427.78872081 240.1192192 415.50176271 227.42285822 403 214.875 C402.12802979 213.99835693 401.25605957 213.12171387 400.35766602 212.21850586 C391.69657843 203.49785614 391.69657843 203.49785614 382 196 Z " fill="#DBFE87" transform="translate(706,0)"/>
<path d="M0 0 C73.92 0 147.84 0 224 0 C224 217.47 224 434.94 224 659 C275.81 659 327.62 659 381 659 C381 679.46 381 699.92 381 721 C250.32 721 119.64 721 -15 721 C-15 700.54 -15 680.08 -15 659 C40.11 659 95.22 659 152 659 C152 461.99 152 264.98 152 62 C101.84 62 51.68 62 0 62 C0 41.54 0 21.08 0 0 Z " fill="#DBFE87" transform="translate(2698,1344)"/>
<path d="M0 0 C23.76 0 47.52 0 72 0 C72 51.48 72 102.96 72 156 C144.27 156 216.54 156 291 156 C291 176.13 291 196.26 291 217 C218.73 217 146.46 217 72 217 C72.14893932 263.07814094 72.14893932 263.07814094 72.30664062 309.15625 C72.32860298 315.38411433 72.35050729 321.61197887 72.37231445 327.83984375 C72.37641723 329.01051274 72.37641723 329.01051274 72.3806029 330.2048316 C72.42454276 342.7665336 72.46521276 355.32824413 72.50465261 367.88996097 C72.54527181 380.80385221 72.58945685 393.71772779 72.63687855 406.63159585 C72.66597553 414.58528272 72.69236736 422.53896875 72.71517897 430.49267617 C72.73303882 436.61535716 72.75588554 442.7380108 72.78049088 448.86066818 C72.78975898 451.3549508 72.79746969 453.84923982 72.80341911 456.34353256 C72.65402382 482.84846096 72.65402382 482.84846096 75.25 509.1875 C75.37713379 510.00154297 75.50426758 510.81558594 75.63525391 511.65429688 C79.62848747 535.58580608 88.89794559 557.79886737 108.5859375 572.99609375 C132.3576076 589.02233981 161.2620802 592.22568311 189.25 592.25 C189.95909515 592.25067474 190.66819031 592.25134949 191.39877319 592.25204468 C222.84303799 592.20528188 253.71633902 587.57705675 284.1953125 579.91796875 C288 579 288 579 290 579 C290 599.79 290 620.58 290 642 C269.05361888 647.8184392 269.05361888 647.8184392 258.8125 649.625 C257.67611084 649.8302832 256.53972168 650.03556641 255.36889648 650.24707031 C236.58458966 653.56617566 217.64875812 656.11989695 198.55078125 656.203125 C197.49505417 656.20882507 196.43932709 656.21452515 195.35160828 656.22039795 C193.12723773 656.22977799 190.90285373 656.23635378 188.6784668 656.24023438 C185.36545787 656.24984635 182.05309595 656.28089956 178.74023438 656.3125 C129.3428788 656.55775415 79.78577423 644.71439412 43.3125 609.75 C10.94160621 576.23828175 -0.24692713 528.2758644 -0.12025452 482.88273621 C-0.12153615 481.16323359 -0.12153615 481.16323359 -0.12284368 479.40899354 C-0.12447722 475.60752549 -0.11901226 471.80610259 -0.11352539 468.00463867 C-0.11268438 465.26383944 -0.11335828 462.52304106 -0.1139679 459.78224182 C-0.11448985 453.90183745 -0.11137756 448.02144427 -0.10573006 442.14104271 C-0.09757028 433.63918307 -0.09499526 425.13732879 -0.09374207 416.63546566 C-0.09155856 402.8385984 -0.08491754 389.04173708 -0.07543945 375.24487305 C-0.06624716 361.85001657 -0.05918671 348.45516172 -0.05493164 335.06030273 C-0.05466364 334.22492086 -0.05439565 333.38953899 -0.05411953 332.52884251 C-0.05203986 325.99469013 -0.05008302 319.46053771 -0.04816496 312.92638528 C-0.03874739 280.95091807 -0.01862528 248.97546574 0 217 C-53.79 217 -107.58 217 -163 217 C-163 196.87 -163 176.74 -163 156 C-109.21 156 -55.42 156 0 156 C0 104.52 0 53.04 0 0 Z " fill="#DBFE87" transform="translate(1626,517)"/>
<path d="M0 0 C1.18372192 0.03939697 1.18372192 0.03939697 2.39135742 0.07958984 C10.63055547 0.50271318 17.92432503 2.18893594 26.25 3.75 C26.25 27.18 26.25 50.61 26.25 74.75 C19.65 74.09 13.05 73.43 6.25 72.75 C0.97341223 72.55428841 -4.22852173 72.41433383 -9.5 72.4375 C-10.51400375 72.44023422 -10.51400375 72.44023422 -11.54849243 72.44302368 C-55.83226134 72.64140277 -97.11253015 85.01005747 -129.75 115.75 C-130.46414063 116.38808594 -131.17828125 117.02617188 -131.9140625 117.68359375 C-139.03147908 124.3222023 -144.66085354 132.27151565 -150.09534347 140.30984175 C-151.15238987 141.86869125 -152.2319721 143.41264729 -153.33983052 144.93580472 C-158.00449936 151.82619807 -158.60533311 157.37575973 -158.50949097 165.56948853 C-158.51870107 166.8275998 -158.52791117 168.08571107 -158.53740036 169.38194692 C-158.56198569 172.84856598 -158.54965227 176.31419222 -158.53093672 179.78081107 C-158.51729454 183.52852359 -158.53839026 187.27606521 -158.55516052 191.02374268 C-158.57947346 197.50833239 -158.58202089 203.99263358 -158.56957626 210.47725296 C-158.55161557 219.85273562 -158.56680457 229.22793692 -158.58995558 238.60339753 C-158.62662639 253.81618687 -158.63667262 269.02887175 -158.62988281 284.24169922 C-158.62334632 299.01517299 -158.62947499 313.78855301 -158.65234375 328.56201172 C-158.65375327 329.48268767 -158.65516279 330.40336362 -158.65661502 331.35193884 C-158.66773776 338.5527617 -158.67959254 345.7535833 -158.69167852 352.95440459 C-158.75068109 388.21964955 -158.74586233 423.48462347 -158.75 458.75 C-101 458.75 -43.25 458.75 16.25 458.75 C16.25 479.21 16.25 499.67 16.25 520.75 C-114.76 520.75 -245.77 520.75 -380.75 520.75 C-380.75 500.29 -380.75 479.83 -380.75 458.75 C-331.25 458.75 -281.75 458.75 -230.75 458.75 C-230.75 331.04 -230.75 203.33 -230.75 71.75 C-276.29 71.75 -321.83 71.75 -368.75 71.75 C-368.75 51.29 -368.75 30.83 -368.75 9.75 C-299.45 9.75 -230.15 9.75 -158.75 9.75 C-158.42 31.2 -158.09 52.65 -157.75 74.75 C-156.76 75.08 -155.77 75.41 -154.75 75.75 C-154.16734375 74.90179687 -153.5846875 74.05359375 -152.984375 73.1796875 C-126.20368339 34.65852702 -89.58008243 10.81088672 -43.0625 2.44140625 C-28.82672391 0.07799253 -14.41197425 -0.58562434 0 0 Z " fill="#DBFE87" transform="translate(2028.75,1544.25)"/>
</svg>
